<svg width="8" height="12" viewBox="0 0 8 12" fill="none" xmlns="http://www.w3.org/2000/svg">
<path d="M1 11.3789C0.725 11.3789 0.489667 11.2762 0.294 11.0709C0.0983332 10.8656 0.000333333 10.6185 0 10.3296V5.08307C0 4.79451 0.0979999 4.54758 0.294 4.34226C0.49 4.13695 0.725333 4.03412 1 4.03377H1.5V2.98446C1.5 2.2587 1.74383 1.64013 2.2315 1.12877C2.71917 0.617411 3.30867 0.361556 4 0.361206C4.69133 0.360857 5.281 0.616712 5.769 1.12877C6.257 1.64083 6.50067 2.2594 6.5 2.98446V4.03377H7C7.275 4.03377 7.5105 4.1366 7.7065 4.34226C7.9025 4.54793 8.00033 4.79486 8 5.08307V10.3296C8 10.6181 7.90217 10.8653 7.7065 11.0709C7.51083 11.2766 7.27533 11.3792 7 11.3789H1ZM1 10.3296H7V5.08307H1V10.3296ZM4 8.75563C4.275 8.75563 4.5105 8.65298 4.7065 8.44766C4.9025 8.24235 5.00033 7.99524 5 7.70633C4.99967 7.41742 4.90183 7.17049 4.7065 6.96552C4.51117 6.76056 4.27567 6.65773 4 6.65703C3.72433 6.65633 3.489 6.75916 3.294 6.96552C3.099 7.17188 3.001 7.41882 3 7.70633C2.999 7.99384 3.097 8.24095 3.294 8.44766C3.491 8.65438 3.72633 8.75703 4 8.75563ZM2.5 4.03377H5.5V2.98446C5.5 2.54725 5.35417 2.17563 5.0625 1.86958C4.77083 1.56353 4.41667 1.41051 4 1.41051C3.58333 1.41051 3.22917 1.56353 2.9375 1.86958C2.64583 2.17563 2.5 2.54725 2.5 2.98446V4.03377Z" fill="white"/>
</svg>
